<?xml version="1.0" encoding="UTF-8"?>
<svg id="Capa_1" data-name="Capa 1" xmlns="http://www.w3.org/2000/svg" version="1.1" viewBox="0 0 595.28 595.28">
  <defs>
    <style>
      .cls-1 {
        fill: #fff;
        stroke-width: 0px;
      }
    </style>
  </defs>
  <path class="cls-1" d="M153.36,352.68c-8.53,0-16.18-2.1-22.94-6.31-6.76-4.21-12.13-9.81-16.09-16.82-3.96-7.01-5.94-14.78-5.94-23.31s2.04-16.12,6.12-23.12c4.08-7.01,9.63-12.58,16.64-16.73,7.01-4.14,14.9-6.22,23.67-6.22s16.66,2.04,23.67,6.12c7.01,4.08,12.58,9.6,16.73,16.54,4.14,6.95,6.21,14.75,6.21,23.4v44.61h-10.79v-34l4.75-6.95c0,7.92-1.83,15.11-5.48,21.57-3.66,6.46-8.62,11.61-14.9,15.45-6.28,3.84-13.5,5.76-21.66,5.76ZM154.82,341.89c6.58,0,12.55-1.61,17.91-4.84,5.36-3.23,9.6-7.52,12.71-12.89s4.66-11.27,4.66-17.73-1.55-12.37-4.66-17.73c-3.11-5.36-7.34-9.66-12.71-12.89-5.36-3.23-11.33-4.84-17.91-4.84s-12.52,1.62-17.82,4.84c-5.3,3.23-9.51,7.53-12.61,12.89-3.11,5.36-4.66,11.27-4.66,17.73s1.55,12.37,4.66,17.73c3.11,5.36,7.31,9.66,12.61,12.89,5.3,3.23,11.24,4.84,17.82,4.84Z"/>
  <path class="cls-1" d="M227.39,391.61h-11.33v-85.37c0-8.65,2.07-16.45,6.22-23.4,4.14-6.95,9.75-12.46,16.82-16.54,7.07-4.08,14.93-6.12,23.58-6.12s16.82,2.07,23.76,6.22c6.95,4.14,12.46,9.72,16.54,16.73,4.08,7.01,6.12,14.72,6.12,23.12s-2.01,16.52-6.03,23.58c-4.02,7.07-9.51,12.68-16.45,16.82-6.95,4.14-14.81,6.21-23.58,6.21-7.8,0-14.9-1.89-21.3-5.67-6.4-3.78-11.49-8.78-15.26-14.99-3.78-6.22-5.67-12.98-5.67-20.29l6.58,6.77v72.94ZM262.68,342.07c6.58,0,12.52-1.61,17.82-4.84,5.3-3.23,9.51-7.55,12.61-12.98,3.11-5.42,4.66-11.36,4.66-17.82s-1.55-12.37-4.66-17.73c-3.11-5.36-7.31-9.66-12.61-12.89-5.3-3.23-11.24-4.84-17.82-4.84s-12.52,1.62-17.82,4.84c-5.3,3.23-9.54,7.53-12.71,12.89-3.17,5.36-4.75,11.27-4.75,17.73s1.58,12.4,4.75,17.82c3.17,5.43,7.4,9.75,12.71,12.98,5.3,3.23,11.24,4.84,17.82,4.84Z"/>
  <path class="cls-1" d="M366.87,352.68c-8.65,0-16.45-2.04-23.4-6.12-6.95-4.08-12.4-9.62-16.36-16.63-3.96-7.01-5.94-14.9-5.94-23.67s1.83-16.3,5.48-23.31c3.66-7.01,8.78-12.58,15.36-16.73,6.58-4.14,14.2-6.21,22.85-6.21s16.15,1.89,22.48,5.67c6.34,3.78,11.27,8.96,14.81,15.54,3.53,6.58,5.3,14.08,5.3,22.49v6.76h-78.06l2.93-7.86c-.61,7.31.48,13.93,3.29,19.83,2.8,5.91,6.92,10.63,12.34,14.17,5.42,3.54,11.73,5.3,18.92,5.3,6.09,0,11.73-1.25,16.91-3.75,5.18-2.5,9.35-6.55,12.52-12.16l8.77,4.75c-4.02,7.31-9.35,12.8-15.99,16.45-6.64,3.66-14.05,5.48-22.21,5.48ZM332.69,301.31h63.43c-.12-6.22-1.55-11.61-4.29-16.18s-6.43-8.1-11.06-10.6c-4.63-2.5-9.94-3.75-15.9-3.75s-11.46,1.34-16.09,4.02c-4.63,2.68-8.32,6.34-11.06,10.97-2.74,4.63-4.42,9.81-5.03,15.54Z"/>
  <path class="cls-1" d="M422.08,350.85h-12.98l23.95-33.64c2.68-3.78,4.02-7.37,4.02-10.79,0-3.17-1.28-6.58-3.84-10.24l-24.13-34h12.98l20.66,28.7c1.83,2.56,3.17,5.15,4.02,7.77.85,2.62,1.28,5.27,1.28,7.95s-.43,5.15-1.28,7.77c-.86,2.62-2.2,5.21-4.02,7.77l-20.66,28.7ZM463.4,311.36h-20.29v-10.42h20.29v10.42ZM497.03,350.85h-12.98l-20.66-28.7c-1.71-2.56-3.02-5.15-3.93-7.77-.91-2.62-1.37-5.21-1.37-7.77s.46-5.33,1.37-7.95c.91-2.62,2.22-5.21,3.93-7.77l20.47-28.7h13.16l-24.13,34c-2.56,3.66-3.84,7.07-3.84,10.24,0,3.41,1.34,7.01,4.02,10.79l23.95,33.64Z"/>
</svg>