<svg xmlns="http://www.w3.org/2000/svg" viewBox="0 0 336.45 49"><path fill="#1d1d1b" d="M0 38.04V6.06h5.09v31.98H0zm0 10.43v-5.99h5.09v5.99H0zm37.67-.06h-4.85V27.63c0-5.03-3.53-7.55-7.31-7.55-4.49 0-9.34 3.47-9.34 10.3v18.03h-4.85V16.42h4.85v4.55c2.58-3.23 6.41-4.85 10.12-4.85 5.81 0 11.38 3.89 11.38 11.44V48.4zm27.02-7.91c0 2.88.84 3.77 4.07 3.77v4.13c-5.39.66-8.74-.42-8.92-6.29V1.63h4.85V40.5zM54.37 4.38c.62 0 1.53.04 2.4.6V.33C55.94.1 55.12 0 54.27 0c-4.61 0-9.12 3.25-9.22 9.6v7.11h-4.2v4.14h4.2v27.57h4.84V20.85h6.89v-4.14h-6.89V9.6c.12-3.23 2.17-5.21 4.49-5.21zM98.7 16.72v31.69h-4.85v-4.25c-2.52 3.23-6.35 4.85-10.06 4.85-5.81 0-11.44-3.95-11.44-11.5V16.73h4.85v20.78c0 5.03 3.53 7.55 7.31 7.55 4.49 0 9.34-3.47 9.34-10.3V16.73h4.85zm35.22 20.78c-1.98 7.01-7.85 11.32-14.85 11.32-8.56 0-15.51-6.35-15.51-16.47s6.47-16.47 15.03-16.47c17.19 0 19.65 19.05.48 19.05-2.93 0-6.41-.48-10.36-1.5.42 6.89 4.85 11.2 10.36 11.2 4.37 0 8.03-2.69 9.58-7.13h5.27zm-24.97-7.84c3.41.78 6.29 1.08 8.62 1.08 13.42 0 10.6-10.6 1.62-10.6-5.03 0-9.22 3.77-10.24 9.52zm55.76 18.75h-4.85V27.63c0-5.03-3.53-7.55-7.31-7.55-4.49 0-9.34 3.47-9.34 10.3v18.03h-4.85V16.42h4.85v4.55c2.58-3.23 6.41-4.85 10.12-4.85 5.81 0 11.38 3.89 11.38 11.44V48.4zm33.78-7.91c-2.58 5.33-7.79 8.5-13.78 8.5-8.56 0-15.51-6.35-15.51-16.47s6.95-16.47 15.51-16.47c5.93 0 11.14 3.35 13.72 8.57l-4.31 2.64c-1.74-4.25-5.39-6.95-9.41-6.95-5.81 0-10.36 5.03-10.36 12.22 0 7.55 4.55 12.28 10.36 12.28 4.31 0 7.91-2.58 9.46-6.89l4.31 2.58zm32.88-6.83h-24.92c.48 6.83 4.85 11.14 10.36 11.14 4.31 0 7.91-2.58 9.46-6.89l4.31 2.58C228 45.83 222.79 49 216.8 49c-8.56 0-15.51-6.35-15.51-16.47s6.47-16.47 15.03-16.47c9.34 0 15.03 6.17 15.03 16.47v1.14zm-5.03-4.13c-.66-5.87-5.21-9.22-10-9.22s-8.68 3.65-9.64 9.22h19.65zm44.41-6.11v25.04h-8.98V31.58h-24.74V6.54h8.98v16.89h24.74zm-33.72 25.04V35.59h8.98v12.88h-8.98zm24.74-29.11V6.54h8.98v12.82h-8.98zm39.83-2.64v31.63h-8.39v-2.82c-2.16 2.28-4.97 3.42-7.79 3.42-5.15 0-10.12-3.89-10.12-11.44V16.73h8.38v20.78c0 2.52 1.98 3.95 4.13 3.95 2.58 0 5.39-2.04 5.39-6.71V16.72h8.39zm34.85 15.45c0 9.16-5.15 16.41-14.5 16.41-10.66 0-16.23-7.01-16.23-16.41V1.39h8.38v17.79c2.28-2.15 5.21-3.47 8.81-3.47 8.44 0 13.54 7.25 13.54 16.47zm-9.16 0c0-5.57-3-9.1-6.59-9.1-4.13 0-6.59 4.01-6.59 9.1 0 6.17 3.12 9.04 6.59 9.04 4.19 0 6.59-2.82 6.59-9.04zm8.43-27.27c0 1.89-1.53 3.43-3.42 3.43s-3.43-1.54-3.43-3.43 1.53-3.42 3.43-3.42 3.42 1.53 3.42 3.42zm-.65 0a2.78 2.78 0 0 0-5.56 0c0 1.53 1.25 2.78 2.78 2.78s2.78-1.25 2.78-2.78zm-2.04.43.71 1.4h-.89l-.6-1.17h-.35v1.17h-.79V3.06h1.46c1.17.11 1.34 1.81.45 2.27zm-.7-1.56h-.43v1.09h.43c.56 0 .57-1.09 0-1.09z"/></svg>